HIERARCHY
ROOT Hips
{
  OFFSET 3.13124 94.3669 -3.18751
  CHANNELS  6 Xposition Yposition Zposition Zrotation Xrotation Yrotation
  JOINT LeftUpLeg
  {
    OFFSET 8.64259 1.95398 -2.38835
    CHANNELS 3 Zrotation Xrotation Yrotation
    JOINT LeftLeg
    {
      OFFSET 43.7702 0 0
      CHANNELS 3 Zrotation Xrotation Yrotation
      JOINT LeftFoot
      {
        OFFSET 40.6238 0 0
        CHANNELS 3 Zrotation Xrotation Yrotation
        JOINT LeftToeBase
        {
          OFFSET 12.7242 0 0
          CHANNELS 3 Zrotation Xrotation Yrotation
          End Site
          {
            OFFSET 0 0 0
          }
        }
      }
    }
  }
  JOINT RightUpLeg
  {
    OFFSET -8.2249 1.95398 -2.59336
    CHANNELS 3 Zrotation Xrotation Yrotation
    JOINT RightLeg
    {
      OFFSET 43.5653 0 0
      CHANNELS 3 Zrotation Xrotation Yrotation
      JOINT RightFoot
      {
        OFFSET 40.6238 0 0
        CHANNELS 3 Zrotation Xrotation Yrotation
        JOINT RightToeBase
        {
          OFFSET 12.7242 0 0
          CHANNELS 3 Zrotation Xrotation Yrotation
          End Site
          {
            OFFSET 0 0 0
          }
        }
      }
    }
  }
  JOINT Spine
  {
    OFFSET 0.165834 0.87714 6.61349
    CHANNELS 3 Zrotation Xrotation Yrotation
    JOINT Spine1
    {
      OFFSET 7.38962 1.71661e-005 0
      CHANNELS 3 Zrotation Xrotation Yrotation
      JOINT Spine2
      {
        OFFSET 11.9445 1.14441e-005 0
        CHANNELS 3 Zrotation Xrotation Yrotation
        JOINT Spine3
        {
          OFFSET 14.7254 4.19617e-005 0
          CHANNELS 3 Zrotation Xrotation Yrotation
          JOINT Spine4
          {
            OFFSET 10.9679 0 0
            CHANNELS 3 Zrotation Xrotation Yrotation
            JOINT RightShoulder
            {
              OFFSET 2.46616 -1.6653 3.69651
              CHANNELS 3 Zrotation Xrotation Yrotation
              JOINT RightArm
              {
                OFFSET 13.0012 0 0
                CHANNELS 3 Zrotation Xrotation Yrotation
                JOINT RightForeArm
                {
                  OFFSET 28.7848 1.52588e-005 0
                  CHANNELS 3 Zrotation Xrotation Yrotation
                  JOINT RightHand
                  {
                    OFFSET 26.5688 1.52588e-005 0
                    CHANNELS 3 Zrotation Xrotation Yrotation
                    End Site
                    {
                      OFFSET 0 0 0
                    }
                  }
                }
              }
            }
            JOINT LeftShoulder
            {
              OFFSET 2.38034 -1.29275 -3.75231
              CHANNELS 3 Zrotation Xrotation Yrotation
              JOINT LeftArm
              {
                OFFSET 16.3182 6.10352e-005 0
                CHANNELS 3 Zrotation Xrotation Yrotation
                JOINT LeftForeArm
                {
                  OFFSET 27.0901 0 0
                  CHANNELS 3 Zrotation Xrotation Yrotation
                  JOINT LeftHand
                  {
                    OFFSET 24.5451 1.52588e-005 0
                    CHANNELS 3 Zrotation Xrotation Yrotation
                    End Site
                    {
                      OFFSET 0 0 0
                    }
                  }
                }
              }
            }
            JOINT Neck
            {
              OFFSET 5.0226 -0.0266342 0
              CHANNELS 3 Zrotation Xrotation Yrotation
              JOINT Head
              {
                OFFSET 6.69363 2.86102e-005 0
                CHANNELS 3 Zrotation Xrotation Yrotation
                End Site
                {
                  OFFSET 0 0 0
                }
              }
            }
          }
        }
      }
    }
  }
}
MOTION
Frames:	15
Frame Time:	0.0333333
-4.5961 96.8595 -7.79214 68.0012 -89.9904 68.107 -170.598 3.12603 91.6257 -9.64763 9.20304 1.85615 63.7378 1.28593 0.669009 28.7808 6.43894e-006 7.64149e-006 -179.903 1.98825 90.4268 -7.79253 0.265066 0.0108952 62.8362 -1.17325 -0.591037 28.7808 1.37818e-005 1.77695e-005 0.00857056 6.33954 -90.1105 14.1949 -0.00278564 0.00169522 2.52393 -0.00164056 0.0016959 -20.0112 -0.000695499 0.00155915 0.00141784 -0.000694833 0.00155627 101.032 -18.6605 -84.9686 9.77381 42.1788 -34.7827 -0.776141 0.574673 -7.11189 -5.37983 -0.320015 -0.0162432 -79.1114 -21.7763 94.046 6.17885 -40.9273 -22.6035 1.35621 42.7776 -5.34455 -0.425935 -0.00962519 0.288186 1.73214 0.000235804 0.00858293 -7.39544 -0.000375024 -0.015101 
-4.59907 96.8506 -7.75154 56.8167 -89.8911 56.876 -170.658 3.09076 91.5594 -9.51574 9.19847 1.85205 63.7292 1.47085 0.777121 28.7808 6.43894e-006 7.64149e-006 -179.935 1.9846 90.3841 -7.73859 0.334339 0.0108953 62.8559 -1.17593 -0.590576 28.7808 1.37818e-005 1.77695e-005 0.00648706 6.32937 -90.1246 14.2152 -0.00225677 0.0265544 2.54428 -0.00113256 0.0266367 -19.9909 -0.0104266 0.0245577 0.0217673 -0.0104322 0.0245536 101.014 -18.7263 -85.0126 9.84564 42.1665 -34.7414 -0.80474 0.574717 -7.07701 -5.37983 -0.320015 -0.0162432 -79.1689 -21.7561 93.9146 6.31802 -40.8652 -22.2935 1.24206 42.7569 -5.2793 -0.291408 -0.00962517 0.307675 1.41539 0.00258424 0.144271 -7.17161 -0.0079364 -0.244215 
-4.62206 96.8397 -7.69754 42.1266 -89.8865 42.1874 -170.628 3.08706 91.5763 -9.5287 9.22258 1.83776 63.7851 1.5772 0.83743 28.7808 6.43894e-006 7.64149e-006 -179.929 2.22149 90.4139 -8.24503 0.316405 0.0115016 63.0673 -1.27459 -0.651436 28.7808 1.37818e-005 1.77695e-005 0.0108333 6.33551 -90.1161 14.2029 0.00630162 0.0185323 2.53197 0.00711256 0.0182303 -20.0032 0.000437679 0.0195741 0.00946562 0.000433591 0.0195613 101.036 -18.8186 -84.9702 9.85573 42.1395 -34.8127 -0.780061 0.574777 -7.02814 -5.37983 -0.320015 -0.0162432 -79.1064 -21.8455 94.041 6.20613 -40.8798 -22.3819 1.19853 42.6061 -5.1562 -0.321795 -0.00990125 0.133629 1.50194 -0.0153397 0.253361 -7.28787 -0.0380887 -0.284125 
-4.65348 96.8845 -7.6553 43.9002 -89.8675 44.0054 -170.604 3.022 91.649 -9.38776 9.312 1.86437 63.6317 1.40001 0.736685 28.7808 6.43894e-006 7.64149e-006 -179.872 1.06413 90.451 -5.90014 0.449466 0.0204006 62.152 -0.922664 -0.430208 28.7808 1.37818e-005 1.77695e-005 0.0175575 6.32354 -90.1451 14.2269 0.015392 0.0184827 2.55593 0.0161833 0.0177802 -19.9792 0.0091208 0.0222549 0.0334295 0.00911398 0.0222459 101.014 -18.8029 -85.0123 9.87217 42.0569 -34.6646 -0.738004 0.574797 -7.01196 -5.37983 -0.320015 -0.0162432 -79.1703 -21.8118 93.9102 6.27272 -40.8051 -22.1452 1.16175 42.7981 -5.09949 -0.44065 -0.0145296 0.135201 1.24148 -0.0466725 0.335946 -7.21432 -0.0838775 -0.295353 
-4.69044 96.8554 -7.62427 42.264 -89.803 42.3695 -170.558 3.13125 91.6755 -9.52132 9.39353 1.84483 63.7221 1.45125 0.764418 28.7808 6.43894e-006 7.64149e-006 -179.871 1.97808 90.4993 -7.70943 0.42461 0.0180191 62.8277 -1.26914 -0.645762 28.7808 1.37818e-005 1.77695e-005 0.0134894 6.31634 -90.118 14.2413 0.0102312 0.0119178 2.57032 0.0107461 0.0114465 -19.9648 0.00617432 0.0144437 0.047805 0.00618113 0.0144445 101.029 -18.8128 -84.9695 9.96896 41.9793 -34.7248 -0.730454 0.574823 -6.99108 -5.37983 -0.320015 -0.0162432 -79.1526 -21.7993 93.953 6.24254 -40.7382 -22.0954 1.12135 43.0086 -4.97331 -0.526464 -0.0225499 -0.152187 1.28335 -0.0547299 0.400373 -7.42534 -0.102648 -0.251421 
-4.73282 96.8827 -7.59502 40.0365 -89.7341 40.2248 -170.494 3.12094 91.7893 -9.36331 9.45618 1.81362 63.6553 1.44435 0.762384 28.7808 6.43894e-006 7.64149e-006 -179.793 1.11154 90.5938 -5.84276 0.574513 0.0273506 62.0084 -1.11187 -0.539965 28.7808 1.37818e-005 1.77695e-005 0.0113102 6.30952 -90.1573 14.2549 -0.00309727 -0.00180804 2.58395 -0.00316605 -0.001676 -19.9512 -0.00241422 -0.00265863 0.0614456 -0.00240013 -0.00264591 101.021 -18.7305 -85.0132 10.1819 41.9333 -34.8421 -0.801439 0.574865 -6.95707 -5.37983 -0.320015 -0.0162432 -79.1473 -21.8448 93.9506 6.30508 -40.7579 -21.9849 1.14117 42.9956 -4.93294 -0.801839 -0.0335477 -0.214848 1.26102 -0.0540081 0.443185 -7.47313 -0.11383 -0.128009 
-4.7673 96.8788 -7.58166 47.8574 -89.6654 48.0604 -170.45 3.20964 91.8216 -9.49318 9.61217 1.82088 63.6998 1.55553 0.82386 28.7808 6.43894e-006 7.64149e-006 -179.756 1.02754 90.6252 -5.68732 0.826968 0.0423358 62.2238 -0.833878 -0.382359 28.7808 1.37818e-005 1.77695e-005 0.00209058 6.30681 -90.1382 14.2603 -0.0204852 -0.0124097 2.58937 -0.0210105 -0.0114939 -19.9458 -0.0158084 -0.0179867 0.0668695 -0.01581 -0.0179886 101.004 -18.6004 -85.0486 10.2339 41.8518 -34.7858 -0.768934 0.574881 -6.94371 -5.37983 -0.320015 -0.0162432 -79.1441 -21.8958 93.9743 6.28621 -40.8441 -22.0129 1.18755 42.8156 -4.88503 -1.02093 -0.0425481 -0.302998 1.24855 -0.0520854 0.562044 -7.4568 -0.126015 -0.201198 
-4.78736 96.8782 -7.58368 49.4125 -89.6022 49.6373 -170.415 3.26515 91.8699 -9.4887 9.70016 1.8056 63.6896 1.43462 0.755075 28.7808 6.43894e-006 7.64149e-006 -179.737 1.12254 90.6817 -5.79468 0.780815 0.0393869 62.0659 -1.08465 -0.526825 28.7808 1.37818e-005 1.77695e-005 -0.000660914 6.30162 -90.1439 14.2691 -0.0270047 -0.0113629 2.59817 -0.027479 -0.0101651 -19.937 -0.0223438 -0.0189622 0.0756629 -0.0223438 -0.0189534 101.019 -18.5827 -85.0103 10.3747 41.8328 -34.8915 -0.820996 0.574884 -6.94166 -5.37983 -0.320015 -0.0162432 -79.1611 -21.8158 93.9329 6.33103 -40.8018 -21.9063 1.08032 43.0868 -4.81138 -0.457508 -0.0230754 -0.334999 1.20663 -0.0715751 0.529301 -7.43068 -0.138836 -0.230677 
-4.78576 96.8597 -7.59536 50.4545 -89.5314 50.6417 -170.456 3.3281 91.8116 -9.52491 9.71564 1.81342 63.7041 1.53716 0.813261 28.7808 6.43894e-006 7.64149e-006 -179.774 1.68219 90.6511 -6.85661 0.752718 0.03731 62.4891 -1.30206 -0.660854 28.7808 1.37818e-005 1.77695e-005 -0.00367739 6.29765 -90.1312 14.2793 -0.029384 -0.000167528 2.60841 -0.0293712 0.00112091 -19.9268 -0.0279852 -0.00899379 0.0858876 -0.0279812 -0.00899121 101.04 -18.5088 -84.9625 10.3789 41.7851 -34.8199 -0.791093 0.574895 -6.93225 -5.37983 -0.320015 -0.0162432 -79.1378 -21.7608 93.9817 6.20663 -40.8325 -22.0624 1.06359 43.225 -4.70061 -0.226896 -0.0181211 -0.505182 1.28159 -0.108691 0.406319 -7.5425 -0.160928 -0.151333 
-4.77584 96.8818 -7.61932 60.3031 -89.4638 60.4532 -170.53 3.35059 91.7457 -9.60127 9.79215 1.90723 63.6401 1.33111 0.69473 28.7808 6.43894e-006 7.64149e-006 -179.779 1.04941 90.5807 -5.63737 0.954781 0.0496367 62.2251 -0.80606 -0.366422 28.7808 1.37818e-005 1.77695e-005 -0.013893 6.29498 -90.1256 14.297 -0.0455606 0.0206514 2.62602 -0.0446131 0.0226248 -19.9091 -0.0496597 0.0059964 0.103495 -0.0496677 0.00599331 101.022 -18.6159 -85.0028 10.243 41.8492 -34.7129 -0.777142 0.574871 -6.95163 -5.37983 -0.320015 -0.0162432 -79.1833 -21.6397 93.8701 6.25441 -40.8214 -21.8811 1.09787 43.1678 -4.7732 -0.0696357 -0.0126539 -0.496531 1.05443 -0.12527 0.28838 -7.41406 -0.158273 -0.152637 
-4.75344 96.8733 -7.64534 63.2293 -89.405 63.3494 -170.555 3.31929 91.7061 -9.50292 9.85592 1.89957 63.6303 1.31266 0.684792 28.7808 6.43894e-006 7.64149e-006 -179.806 1.12242 90.5394 -5.77175 1.00584 0.0523453 62.3407 -0.791099 -0.35886 28.7808 1.37818e-005 1.77695e-005 -0.0201943 6.29335 -90.138 14.2798 -0.0622865 0.0102214 2.60884 -0.0617776 0.0129438 -19.9263 -0.0624788 -0.00896546 0.086321 -0.0624788 -0.00897275 101.056 -18.2884 -84.9353 10.3549 41.7552 -34.6953 -0.76979 0.574899 -6.92908 -5.37983 -0.320015 -0.0162432 -79.1196 -21.7632 94.0245 6.17769 -40.895 -22.0991 1.00598 42.9851 -4.66745 0.258844 -0.00240212 -0.534331 1.29871 -0.103252 0.455686 -7.557 -0.158802 -0.235342 
-4.7175 96.8628 -7.68044 66.1321 -89.3468 66.1962 -170.641 3.30314 91.6027 -9.44513 9.74386 1.89347 63.5683 1.4698 0.775771 28.7808 6.43894e-006 7.64149e-006 -179.867 1.52933 90.4781 -6.55706 0.902002 0.0455665 62.4218 -1.17139 -0.581119 28.7808 1.37818e-005 1.77695e-005 -0.0277965 6.29547 -90.1388 14.2833 -0.0717862 0.0473429 2.61236 -0.06963 0.0504468 -19.9228 -0.0826929 0.0235742 0.089837 -0.0826959 0.0235702 101.07 -18.4048 -84.8916 10.3502 41.8074 -34.7294 -0.80754 0.574897 -6.93113 -5.37983 -0.320015 -0.0162432 -79.0854 -21.4729 94.0837 6.01559 -40.8146 -22.1315 1.05671 43.0783 -4.68639 0.20154 -0.00597163 -0.607633 1.36544 -0.113064 0.1573 -7.66997 -0.130865 -0.0736274 
-4.70977 96.8707 -7.71534 70.6536 -89.3594 70.6946 -170.673 3.27801 91.5634 -9.47724 9.72235 1.92806 63.5681 1.42508 0.749419 28.7808 6.43894e-006 7.64149e-006 -179.874 1.11342 90.4178 -5.80668 1.00882 0.0524027 62.4344 -0.649261 -0.276544 28.7808 1.37818e-005 1.77695e-005 -0.028084 6.30427 -90.1376 14.2656 -0.0740942 0.0346708 2.59468 -0.0724893 0.0378755 -19.9405 -0.0811321 0.0108696 0.0721575 -0.0811316 0.0108633 101.068 -18.1537 -84.9153 10.3667 41.7846 -34.6433 -0.812568 0.574932 -6.90199 -5.37983 -0.320015 -0.0162432 -79.1094 -21.5007 94.0278 6.03693 -40.8497 -22.1079 0.921978 42.8988 -4.58216 0.613052 0.00866024 -0.5653 1.38941 -0.0804385 0.355444 -7.62036 -0.118182 -0.247442 
-4.70628 96.8616 -7.75233 71.4913 -89.3862 71.4773 -170.698 3.34783 91.5085 -9.64165 9.81197 1.97877 63.5994 1.3111 0.681071 28.7808 6.43894e-006 7.64149e-006 -179.887 0.988783 90.3444 -5.59069 1.16131 0.0621001 62.8189 -0.103228 0.0296034 28.7808 1.37818e-005 1.77695e-005 -0.0307642 6.29608 -90.098 14.2819 -0.07195 0.0363319 2.61097 -0.0701056 0.0392306 -19.9242 -0.0807402 0.0145262 0.0884561 -0.0807441 0.0145199 101.01 -18.1196 -85.0652 10.2462 41.832 -34.4416 -0.811451 0.574912 -6.91859 -5.37983 -0.320015 -0.0162432 -79.1484 -21.4105 93.9344 6.07029 -40.8397 -21.9912 0.90083 42.8132 -4.58463 0.697058 0.0114245 -0.557642 1.07851 -0.0772055 0.221801 -7.35559 -0.101694 -0.107062 
-4.712 96.8392 -7.78934 62.8812 -89.4277 62.9042 -170.714 3.37498 91.5279 -9.50703 9.71417 1.96496 63.5899 1.35701 0.709826 28.7808 6.43894e-006 7.64149e-006 -179.907 2.25587 90.4371 -7.90549 0.781231 0.0377789 62.9288 -1.32407 -0.678275 28.7808 1.37818e-005 1.77695e-005 -0.0211211 6.28896 -90.1217 14.2962 -0.0569929 0.0395187 2.62522 -0.0552082 0.0419848 -19.91 -0.0662093 0.020505 0.102703 -0.0662114 0.020501 101.045 -18.0665 -84.9787 10.3391 41.7501 -34.5333 -0.791156 0.574902 -6.92654 -5.37983 -0.320015 -0.0162432 -79.0868 -21.2474 94.0647 5.83034 -40.7485 -22.2184 0.610286 42.9367 -4.19696 1.61101 0.0177087 -1.25919 1.26797 -0.0769097 0.146672 -7.68183 -0.0921432 -0.0887579 
